<?xml version="1.0" encoding="utf-8"?>
<!-- Generator: Adobe Illustrator 25.2.3, SVG Export Plug-In . SVG Version: 6.00 Build 0)  -->
<svg version="1.1" id="Layer_1" xmlns="http://www.w3.org/2000/svg" xmlns:xlink="http://www.w3.org/1999/xlink" x="0px" y="0px"
	 viewBox="0 0 512 512" style="enable-background:new 0 0 512 512;" xml:space="preserve">
<style type="text/css">
	.st0{fill:#F4F4F0;}
</style>
<g id="Ebene_3">
</g>
<g id="Ebene_1">
</g>
<g id="Ebene_2">
	<g>
		<path class="st0" d="M384,134.5c3.6,0,6.5-2.9,6.5-6.5s-2.9-6.5-6.5-6.5s-6.5,2.9-6.5,6.5S380.4,134.5,384,134.5z"/>
		<path class="st0" d="M416,58H96c-21,0-38,17-38,38v320c0,21,17,38,38,38h320c21,0,38-17,38-38V96C454,75,437,58,416,58z M442,96
			v90H330.1c-18.6-19.7-45-32-74.1-32s-55.5,12.3-74.1,32H166V70h250C430.3,70,442,81.7,442,96z M256,166c49.6,0,90,40.4,90,90
			s-40.4,90-90,90s-90-40.4-90-90S206.4,166,256,166z M118,186V70h36v116H118z M96,70h10v116H70V96C70,81.7,81.7,70,96,70z M416,442
			H96c-14.3,0-26-11.7-26-26V198h102.1c-11.4,16.5-18.1,36.5-18.1,58c0,56.2,45.8,102,102,102s102-45.8,102-102
			c0-21.5-6.7-41.5-18.1-58H442v218C442,430.3,430.3,442,416,442z"/>
		<path class="st0" d="M256,310c29.8,0,54-24.2,54-54s-24.2-54-54-54s-54,24.2-54,54S226.2,310,256,310z M256,214
			c23.2,0,42,18.8,42,42s-18.8,42-42,42s-42-18.8-42-42S232.8,214,256,214z"/>
	</g>
</g>
</svg>
