<?xml version="1.0" ?><!DOCTYPE svg  PUBLIC '-//W3C//DTD SVG 1.1//EN'  'http://www.w3.org/Graphics/SVG/1.1/DTD/svg11.dtd'><svg enable-background="new 0 0 512 512" height="512px" version="1.1" viewBox="0 0 512 512" width="512px" xml:space="preserve" xmlns="http://www.w3.org/2000/svg" xmlns:xlink="http://www.w3.org/1999/xlink"><g id="Ebene_3"/><g id="Ebene_1"/><g id="Ebene_2"><g><path d="M384,134.5c3.584,0,6.5-2.916,6.5-6.5s-2.916-6.5-6.5-6.5s-6.5,2.916-6.5,6.5S380.416,134.5,384,134.5z"/><path d="M416,58H96c-20.953,0-38,17.047-38,38v320c0,20.953,17.047,38,38,38h320c20.953,0,38-17.047,38-38V96    C454,75.047,436.953,58,416,58z M442,96v90H330.117c-18.607-19.691-44.95-32-74.117-32s-55.51,12.309-74.117,32H166V70h250    C430.337,70,442,81.664,442,96z M256,166c49.626,0,90,40.374,90,90s-40.374,90-90,90s-90-40.374-90-90S206.374,166,256,166z     M118,186V70h36v116H118z M96,70h10v116H70V96C70,81.664,81.663,70,96,70z M416,442H96c-14.337,0-26-11.664-26-26V198h102.145    C160.712,214.479,154,234.469,154,256c0,56.243,45.757,102,102,102s102-45.757,102-102c0-21.531-6.712-41.521-18.145-58H442v218    C442,430.336,430.337,442,416,442z"/><path d="M256,310c29.775,0,54-24.224,54-54s-24.225-54-54-54s-54,24.224-54,54S226.225,310,256,310z M256,214    c23.159,0,42,18.841,42,42s-18.841,42-42,42s-42-18.841-42-42S232.841,214,256,214z"/></g></g></svg>