<?xml version="1.0" encoding="utf-8"?>
<!-- Generator: Adobe Illustrator 25.2.3, SVG Export Plug-In . SVG Version: 6.00 Build 0)  -->
<svg version="1.1" id="Layer_1" xmlns="http://www.w3.org/2000/svg" xmlns:xlink="http://www.w3.org/1999/xlink" x="0px" y="0px"
	 viewBox="0 0 32 32" style="enable-background:new 0 0 32 32;" xml:space="preserve">
<style type="text/css">
	.st0{fill:#F4F4F0;}
</style>
<g id="in_linkedin_portfolio_social_media">
	<path class="st0" d="M6.5,3C4.6,3,3,4.6,3,6.5S4.6,10,6.5,10S10,8.4,10,6.5S8.4,3,6.5,3z M6.5,8C5.7,8,5,7.3,5,6.5S5.7,5,6.5,5
		S8,5.7,8,6.5S7.3,8,6.5,8z"/>
	<path class="st0" d="M9,11H4c-0.6,0-1,0.4-1,1s0.4,1,1,1h4v14H5V16c0-0.6-0.4-1-1-1s-1,0.4-1,1v12c0,0.6,0.4,1,1,1h5
		c0.6,0,1-0.4,1-1V12C10,11.4,9.6,11,9,11z"/>
	<path class="st0" d="M27.3,12.7c-1.2-1.1-2.7-1.7-4.3-1.7h-1c-1.4-0.1-2.8,0.2-4,0.9c-0.1-0.5-0.5-0.9-1-0.9h-5c-0.6,0-1,0.4-1,1
		v16c0,0.6,0.4,1,1,1h5c0.6,0,1-0.4,1-1v-9c0-1.1,0.9-2,2-2s2,0.9,2,2v9c0,0.6,0.4,1,1,1h5c0.6,0,1-0.4,1-1V17
		C29.1,15.4,28.5,13.8,27.3,12.7z M27,27h-3v-8c0-2.2-1.8-4-4-4s-4,1.8-4,4v8h-3V13h3v1c0,0.4,0.2,0.8,0.6,0.9
		c0.4,0.2,0.8,0.1,1.1-0.2c1-1,1.7-1.7,4.3-1.7h1c1.1,0,2.1,0.3,2.9,1.1c0.7,0.8,1.1,1.8,1.1,2.9V27z"/>
</g>
</svg>
